# xmcd
#
# Track frame offsets:
#	150
#	15377
#	30428
#	46862
#	61043
#	86939
#	103832
#	123633
#	139395
#	155383
#	169176
#	187595
#	211898
#	228779
#	249968
#	263108
#	276835
#	292264
#	312739
#	325585
#
# Disc length: 4521
#
# Revision: 1
# Processed by: cddbd v1.5.1PL0 Copyright (c) Steve Scherf et al.
# Submitted via: audiograbber 1.82.01
# Normalized: r0:TDELIM( - )
#
DISCID=1511a714
DTITLE=Romantic Collection - Golden gipsy hits
DYEAR=1900
DGENRE=
TTITLE0=Los Reyes - Todos ole
TTITLE1=Findango - Baila, el baila del ombligo
TTITLE2=Los del Valle - Volare
TTITLE3=La Luna - All my
TTITLE4=Gipsy Connexion - Hotel California
TTITLE5=Los del Mar - Oh Maria
TTITLE6=Jose Garsia - Tic tic tac
TTITLE7=La Bamba - Bamboleo
TTITLE8=Diana - El talisman
TTITLE9=Carramba - Bem, bem Maria
TTITLE10=Francisco - Cruzando el Rio
TTITLE11=Flamingo - Cruzando el Rio
TTITLE12=L.D.V. - Soledad
TTITLE13=Ortendo - 2 the night
TTITLE14=LDM feat. Jose Garsia - El baile del corazon
TTITLE15=Veneno - Yerbaguena pa mi te
TTITLE16=Los Pimpos - Buenos dias
TTITLE17=La Foule - Amor de mis amores
TTITLE18=Coco - Sera del amor
TTITLE19=Lopez feat. Coco - Prisionero
EXTD=
EXTT0=
EXTT1=
EXTT2=
EXTT3=
EXTT4=
EXTT5=
EXTT6=
EXTT7=
EXTT8=
EXTT9=
EXTT10=
EXTT11=
EXTT12=
EXTT13=
EXTT14=
EXTT15=
EXTT16=
EXTT17=
EXTT18=
EXTT19=
PLAYORDER=
